<svg width="24" height="24" fill="#b9c9d6"><path d="M20.484 3.516A12 12 0 103.516 20.484 12 12 0 0017.6 22.613a.884.884 0 10-.826-1.564A10.231 10.231 0 1122.23 12a5.607 5.607 0 01-.979 3.551 2.277 2.277 0 01-1.756.964c-.89 0-1.79-.708-1.79-2.292v-6.89a.885.885 0 10-1.77 0v.389a6.072 6.072 0 10-4.3 10.352 5.92 5.92 0 001.741-.256.887.887 0 10-.507-1.7 4.36 4.36 0 01-1.234.182 4.3 4.3 0 114.3-4.3v2.223c0 2.666 1.79 4.062 3.561 4.062a4.039 4.039 0 003.152-1.648A7.477 7.477 0 0024 12a11.915 11.915 0 00-3.516-8.484z"/></svg>