<svg width="25.996" height="25.996" fill="#b9c9d6"><path d="M23.524 2.472a8.452 8.452 0 00-14.141 8.164L.248 19.771a.845.845 0 00-.248.6v4.782A.845.845 0 00.845 26h4.782a.845.845 0 00.6-.248l1.2-1.2a.845.845 0 00.248-.6V22.41h1.538a.845.845 0 00.6-.248l1.2-1.2a.845.845 0 00.248-.6v-1.538h1.538a.845.845 0 00.6-.248l1.963-1.963a8.452 8.452 0 008.162-14.141zm-1.2 10.759a6.733 6.733 0 01-6.941 1.626.845.845 0 00-.866.2l-2.068 2.076h-2.04a.845.845 0 00-.845.845v2.041l-.7.7H6.822a.845.845 0 00-.845.845v2.041l-.7.7H1.691v-3.586l9.245-9.245a.845.845 0 00.2-.866 6.762 6.762 0 1111.19 2.623z"/><path d="M21.508 4.489a3.122 3.122 0 100 4.415 3.125 3.125 0 000-4.415zm-1.1 3.311a1.561 1.561 0 110-2.207 1.563 1.563 0 01-.006 2.207z"/></svg>