<svg width="22" height="22" fill="#123"><path d="M9.806 7.134a2.1 2.1 0 00.116.212c.039.058.1.116.135.174a1.743 1.743 0 00.193.174.651.651 0 00.232.116.956.956 0 00.251.077 1.187 1.187 0 00.251.019 1.1 1.1 0 00.251-.019.69.69 0 00.212-.077h.019a1.439 1.439 0 00.232-.135 1.245 1.245 0 00.174-.154l.019-.019a1.062 1.062 0 00.135-.174.6.6 0 00.1-.193c0-.019 0-.019.019-.039a1.24 1.24 0 00.077-.251 1.644 1.644 0 000-.5 1.779 1.779 0 00-.077-.251 1.094 1.094 0 00-.232-.347l-.039-.039a1.681 1.681 0 00-.193-.154c-.077-.039-.135-.077-.212-.116a1.089 1.089 0 00-.232-.077 1.184 1.184 0 00-.251-.019 1.015 1.015 0 00-.483.1h-.019a2.1 2.1 0 00-.212.116 1.685 1.685 0 00-.193.154 1.244 1.244 0 00-.154.174 2.1 2.1 0 00-.116.212 1.088 1.088 0 00-.077.232 1.186 1.186 0 00-.019.251 1.1 1.1 0 00.019.251 1.75 1.75 0 00.074.302zM12.486 14.513h-.444v-4.73a.5.5 0 00-.5-.5h-2.03a.5.5 0 00-.5.5v1.042a.5.5 0 00.5.5h.405v3.2h-.405a.5.5 0 00-.5.5v1.042a.5.5 0 00.5.5h2.972a.5.5 0 00.5-.5v-1.042a.515.515 0 00-.498-.512z"/><path d="M11 0a11 11 0 1011 11A11 11 0 0011 0zm0 20.552A9.552 9.552 0 1120.552 11 9.561 9.561 0 0111 20.552z"/></svg>