<svg width="26" height="25.998" fill="#fff"><path class="a" d="M.002.259v8.546h8.546V.259zm6.535 6.535H2.013V2.27h4.524z"/><path class="a" d="M3 4h2v2H3zM17.195.259v8.546h8.546V.259zm6.535 6.535h-4.525V2.27h4.525z"/><path class="a" d="M21 4h2v2h-2zM.002 17.452v8.546h8.546v-8.546zm6.535 6.535H2.013v-4.525h4.524z"/><path class="a" d="M3 21.001h2v2H3zm-1-12h2v2H2zm4.035 5.183v-2.011H4.024v2.011h1.961v2.011h2.011v-2.011zM14 4h3v2h-3zM9 2h2v4H9zm2-2h3v2h-3zm1.067 6.141v2.011h-2.011v2.011h4.022V6.141zm2.011 11.964v-1.961h-2.011v-3.971h-2.011v4.022h2.011v1.961h2.011v1.961H18.1v-2.011z"/><path class="a" d="M14 9.001h3v5h-3zm9.731 3.122v-1.961h-3.67v2.011H18.1v2.011h2.011v1.961h5.63v-4.022zm0 2.011h-3.62v-1.961h3.62zM24 19h2v3h-2z"/><path class="a" d="M17 14h2v3h-2zm2 6h1v2h-1zm1-1h2v1h-2zm.111 3.127v3.871h2.011v-1.86h1.609v-2.011zM9 19h2v3H9zm7.089 4.987v-2.011h-4.022v4.022h2.011v-2.011h1.961v2.011h2.011v-2.011zM6 9.001h3v2H6zM0 11h2v6H0z"/></svg>