<svg width="229" height="31" fill="none" xmlns="http://www.w3.org/2000/svg"><g clip-path="url(#clip0)" fill="#fff"><path opacity=".678" d="M202.93 3.49c-1.345 1.126-2.733 2.514-3.298 4.207-.65 1.996.26 4.035 1.129 5.812.867 1.82 1.821 3.6 2.644 5.464.651 1.474 1.561 3.208 1.345 4.858-.173 1.172-.564 2.299-.78 3.47-.173.781.564 0 .823-.216 1.518-1.301 3.166-2.776 3.773-4.772.303-.996.13-1.909-.216-2.862-.346-.91-.737-1.777-1.129-2.69a285.314 285.314 0 00-2.56-5.466 29.36 29.36 0 01-.996-2.04 7.088 7.088 0 01-.521-2.34 9.307 9.307 0 01.043-1.91c.043-.478.173-.91.216-1.388.046-.257-.171-.346-.473-.127zm19.863 0c-1.344 1.128-2.733 2.516-3.297 4.207-.651 1.996.259 4.035 1.129 5.812.867 1.823 1.823 3.6 2.646 5.466.651 1.475 1.561 3.209 1.345 4.859-.173 1.172-.564 2.298-.78 3.47-.173.78.564 0 .824-.216 1.517-1.302 3.165-2.777 3.772-4.772.303-.997.13-1.91-.216-2.863-.345-.91-.737-1.777-1.128-2.69a291.578 291.578 0 00-2.561-5.466 29.818 29.818 0 01-.996-2.039 7.088 7.088 0 01-.521-2.341 9.307 9.307 0 01.043-1.91c.043-.478.173-.91.216-1.388.046-.26-.171-.348-.476-.13zM212.558.192c-1.518 1.259-3.165 2.776-4.078 4.554-.651 1.258-.737 2.56-.392 3.859.435 1.561 1.04 3.122 1.691 4.64 1.259 2.906 2.906 5.639 4.121 8.588.435 1.04.911 2.212.997 3.384.086 1.431-.391 2.95-.781 4.294-.086.392-.345.91-.302 1.302.043.302.216.173.391.043a21.815 21.815 0 002.126-1.866c1.777-1.69 3.816-3.948 3.643-6.593-.086-1.085-.608-2.125-1.04-3.122a83.77 83.77 0 00-1.518-3.424 166.516 166.516 0 00-2.992-6.29c-.346-.737-.781-1.432-1.04-2.169-.391-.997-.564-2.039-.608-3.079-.043-.78 0-1.604.087-2.385.043-.52.216-.996.216-1.517.13-.478-.13-.521-.521-.219zM28.19 30.58c-.009-7.121-5.779-12.891-12.9-12.9-7.121.009-12.891 5.779-12.9 12.9H0a15.19 15.19 0 014.478-10.812 15.23 15.23 0 015.81-3.645A8.836 8.836 0 016.45 8.84 8.85 8.85 0 0115.29 0a8.85 8.85 0 018.84 8.84 8.836 8.836 0 01-3.839 7.284 15.23 15.23 0 015.81 3.645A15.189 15.189 0 0130.58 30.58h-2.39zM8.839 8.84a6.457 6.457 0 006.45 6.45 6.457 6.457 0 006.45-6.45 6.457 6.457 0 00-6.45-6.45 6.457 6.457 0 00-6.45 6.45zM165.818 15a4 4 0 118 0 4 4 0 01-8 0zm-29 0a4 4 0 118 0 4 4 0 01-8 0zm-28 0a4 4 0 118 0 4 4 0 01-8 0zm-29 0a4 4 0 118 0 4 4 0 01-8 0zm-29 0a4 4 0 118 0 4 4 0 01-8 0z"/></g><defs><clipPath id="clip0"><path fill="#fff" d="M0 0h229v31H0z"/></clipPath></defs></svg>