<svg width="38.656" height="25.771" fill="#fff"><path d="M38.012 25.771H10.953a.644.644 0 01-.493-.23L.152 13.301a.645.645 0 010-.83L10.46.234a.644.644 0 01.493-.23h27.059a.645.645 0 01.644.644v24.478a.646.646 0 01-.644.645zm-26.76-1.288h26.115V1.289H11.252l-9.765 11.6z"/><path d="M28.347 18.687a.643.643 0 01-.455-.189L17.584 8.187a.644.644 0 11.911-.911l10.308 10.311a.644.644 0 01-.456 1.1z"/><path d="M18.04 18.688a.644.644 0 01-.455-1.1l10.31-10.312a.644.644 0 01.911.911L18.495 18.495a.643.643 0 01-.455.193z"/></svg>