<svg width="286" height="62" viewBox="0 0 286 62"><path d="M66.528 12.396c-.4-.4-.9-.7-1.3-1-1.4-1-2.999-1.8-4.598-2.4h-.1c-6.598-2.198-13.895-.2-18.494 5.099-4.598 5.198-5.598 12.695-2.599 18.993l-1 1.1-13.994 15.894a6.472 6.472 0 00-1.1 6.898c.4.9 1 1.699 1.7 2.399 1.299 1.2 3.098 1.799 4.798 1.699 1.8-.1 3.398-1 4.598-2.3l.1-.1c1.6 1.4 4.099 1.3 5.598-.299 1.5-1.6 1.4-4.098-.2-5.598l-.1-.1-.1-.1-.2-.2c-.7-1-.6-2.399.2-3.299.9-.8 2.3-.9 3.299-.2l.1.1c1.7 1.5 4.198 1.3 5.598-.3 1.5-1.699 1.4-4.198-.3-5.698l1-1.1c7.797 2.6 16.394-.599 20.592-7.796 4.099-7.098 2.7-16.194-3.498-21.693zm-3.8 14.194c-.499.6-1.099 1-1.798 1.4-3 1.6-6.698.6-8.497-2.2-1.8-2.898-1.2-6.597 1.5-8.696 2.598-2 6.397-1.7 8.696.7 2.3 2.499 2.4 6.297.1 8.796z" fill="#fff"/><path d="M26.342 34.188c2.1-.7 3.299-2.9 2.6-4.999l1.399-.5c1.899 2.2 4.398 3.9 7.097 4.899-5.398-5.898-5.998-14.695-1.6-21.292 4.399-6.698 12.796-9.497 20.293-6.798C51.433.5 44.136-1.3 37.738 1 31.24 3.299 26.642 9.197 26.142 16.094l-1.4.5L4.55 23.292C1.05 24.492-.848 28.19.35 31.689c1.2 3.498 4.899 5.398 8.397 4.198h.1c.7 2.1 2.9 3.299 4.998 2.7 2.2-.7 3.4-3 2.7-5.1 0 0 0-.099-.1-.099v-.1c0-.1-.1-.2-.1-.3-.2-1.3.6-2.499 1.799-2.799 1.2-.3 2.5.3 2.999 1.5v.1c.8 2.099 2.999 3.098 5.098 2.399h.1z" fill="#4CA2F0"/><path d="M91.918 25.69l14.495-16.493a.698.698 0 00-.4-1.2h-4.598a3.598 3.598 0 00-2.6 1.3L88.12 22.492h-1l1.9-13.095a1.4 1.4 0 00-1.4-1.6H83.92a1.8 1.8 0 00-1.8 1.6l-4.397 31.388a1.3 1.3 0 001.299 1.6h3.699a1.799 1.799 0 001.799-1.6l1.7-11.495h.9l7.097 11.895a2.7 2.7 0 002.299 1.2h5.098a.796.796 0 00.698-.397.807.807 0 00.002-.803L91.918 25.691zm37.387-17.793h-17.494a1.798 1.798 0 00-1.799 1.6l-4.399 31.388a1.305 1.305 0 00.722 1.482 1.3 1.3 0 00.578.118h17.894a1.8 1.8 0 001.699-1.6l.3-2.499a1.303 1.303 0 00-.751-1.385 1.306 1.306 0 00-.549-.114h-12.495l1.199-8.397h9.797a1.798 1.798 0 001.799-1.6l.3-2.399a1.305 1.305 0 00-.256-1.12 1.294 1.294 0 00-1.043-.48h-9.797l1.3-9.296h12.195a1.902 1.902 0 001.8-1.5l.299-2.498a1.305 1.305 0 00-.255-1.12 1.303 1.303 0 00-1.044-.48v-.1zm29.389 0h-3.998a2.8 2.8 0 00-2.299 1.4L144.2 24.49l-3.999-15.194a1.896 1.896 0 00-1.899-1.4h-4.199a1.097 1.097 0 00-.906.42 1.098 1.098 0 00-.193.98l6.797 21.292-1.499 10.296a1.402 1.402 0 001.399 1.6h3.799a1.798 1.798 0 001.699-1.6l1.5-10.396 12.695-21.192a.803.803 0 00-.167-1.354.802.802 0 00-.533-.046zm51.082 32.988l4.398-31.388c.1-.4 0-.8-.3-1.1-.199-.3-.599-.5-.999-.5h-3.799c-.899 0-1.599.7-1.699 1.6l-1.9 13.395h-10.496l1.9-13.395c.1-.4 0-.8-.3-1.1-.2-.3-.6-.5-1-.5h-3.799c-.899 0-1.699.7-1.799 1.6l-4.398 31.388c-.1.4 0 .8.3 1.1.199.3.599.5.999.5h3.799c.899 0 1.599-.7 1.699-1.6l1.7-12.295h10.396l-1.6 12.295c-.1.4 0 .8.3 1.1.2.3.6.5 1 .5h3.799c.899 0 1.699-.7 1.799-1.6zm31.689.1l-6.198-31.588a1.998 1.998 0 00-1.9-1.5h-3.298a2.795 2.795 0 00-2.3 1.5l-15.094 31.588a.993.993 0 00-.018.973 1.001 1.001 0 00.818.527h4.098a2.498 2.498 0 002.199-1.5l2.999-6.797h10.596l1.1 6.897a1.801 1.801 0 001.799 1.5h4.099a1.204 1.204 0 00.975-.45 1.204 1.204 0 00.225-1.05l-.1-.1zM224.97 28.79l5.498-12.796 2 12.796h-7.498zm29.49-20.893h-3.799a1.798 1.798 0 00-1.799 1.6l-4.399 31.388a1.305 1.305 0 00.722 1.482 1.3 1.3 0 00.578.118h3.799a1.8 1.8 0 001.699-1.6l4.398-31.388a1.305 1.305 0 00-.255-1.12 1.303 1.303 0 00-1.044-.48h.1zm30.189 0h-3.699a1.8 1.8 0 00-1.699 1.6l-2.799 20.492-7.597-20.692a2.304 2.304 0 00-2.1-1.4h-3.998a1.801 1.801 0 00-1.799 1.6l-4.399 31.388a1.29 1.29 0 00-.002.59 1.29 1.29 0 00.724.892 1.3 1.3 0 00.578.118h3.698a1.798 1.798 0 001.7-1.6l2.799-20.392 7.497 20.592a2.297 2.297 0 002.099 1.4h4.099a1.899 1.899 0 001.799-1.6l4.399-31.388a1.305 1.305 0 00-.722-1.482 1.3 1.3 0 00-.578-.118zm-100.764 3.599a17.289 17.289 0 00-17.156-2.438 17.289 17.289 0 00-10.658 13.664 17.285 17.285 0 006.542 16.046 17.297 17.297 0 0017.174 2.317c.202-.08.376-.22.5-.4a3.498 3.498 0 00.599-1.899l.6-4.798a1.001 1.001 0 00-1.137-1.195.999.999 0 00-.562.295 10.296 10.296 0 111.799-13.895 1.104 1.104 0 001.104.335 1.101 1.101 0 00.795-.835l.8-6.098a1.096 1.096 0 00-.4-1v-.1z" fill="#fff"/><path d="M173.389 31.788a6.498 6.498 0 100-12.995 6.498 6.498 0 000 12.995z" fill="#fff"/><path d="M77.823 54.18h103.563v1.5H77.823v-1.5z" fill="#4CA2F0"/><path d="M191 53.65v6.625h1.75v-5.75h5.5v-1.5h-5.5v-4.5H199v-1.5h-8v6.625zM203.85 47.375c-1.075.475-2.475 2.225-2.85 3.525-.2.675-.275 2.025-.2 3.45.075 1.975.2 2.5.775 3.475 2.125 3.625 7.125 3.5 8.95-.225.525-1.05.6-1.55.6-3.95 0-2.35-.075-2.9-.55-3.75-.65-1.2-1.7-2.25-2.65-2.6-.975-.375-3.125-.325-4.075.075zm4.125 1.775c1.175 1 1.6 2.475 1.475 5.075-.125 2.575-.625 3.675-1.95 4.375-1.7.875-3.7.15-4.525-1.65-.575-1.3-.65-5-.125-6.25.875-2.1 3.5-2.9 5.125-1.55zM213.95 47.175c-.125.1-.2 3.1-.2 6.65v6.45h1.75v-5.25h3.2l1.425 2.625 1.4 2.625h1.025c.975 0 1 0 .65-.575-.2-.3-.9-1.55-1.575-2.75l-1.2-2.225.875-.7c1.15-.95 1.55-1.95 1.4-3.5-.15-1.375-.75-2.25-2.075-2.95-.8-.425-6.35-.775-6.675-.4zm5.8 1.725c.4.2.85.6 1 .85.45.875.3 2.2-.35 2.95-.575.65-.775.7-2.75.8l-2.15.075v-5.05h1.75c1.1 0 2.05.15 2.5.375zM231.5 47.5c-1.325.725-1.8 1.375-1.925 2.7-.175 2.125.725 3.025 4.275 4.225 2.2.75 2.9 1.375 2.9 2.6 0 1.425-.675 1.875-2.8 1.875-1.65 0-1.775-.05-2.475-.825-.4-.45-.725-.975-.725-1.175 0-.275-.275-.375-.9-.375-.85 0-.9.025-.75.675.25 1.05.95 1.875 2.175 2.575.9.5 1.425.625 2.85.6 2.9-.025 4.375-1.175 4.375-3.4 0-2.125-.85-2.925-4.35-4.1-2.125-.725-2.9-1.4-2.9-2.475 0-.925.575-1.55 1.725-1.875 1.65-.475 3.625.475 3.825 1.825.05.425.275.575.925.625l.85.075-.15-.925c-.175-1.075-1.2-2.25-2.35-2.75-1.15-.5-3.525-.425-4.575.125zM239.75 47.775v.75H244v11.75h1.75v-11.75h4.275l-.075-.7-.075-.675-5.05-.075-5.075-.05v.75zM251.925 47.175c-.1.1-.175 3.1-.175 6.65v6.45h8.5v-1.5h-6.75v-4.5h5.75v-1.5h-5.75v-4.25h6.775l-.075-.7-.075-.675-4.025-.075c-2.2-.025-4.075.025-4.175.1zM262.425 47.175c-.1.1-.175 3.1-.175 6.65v6.45h8.5v-1.5H264v-4.5h5.75v-1.5H264v-4.25h6.775l-.075-.7-.075-.675-4.025-.075c-2.2-.025-4.075.025-4.175.1zM272.925 47.175c-.1.1-.175 3.1-.175 6.65v6.45h2.05l-.15-5.2-.175-5.175 2.1 5.125c2.025 4.925 2.125 5.125 2.825 5.2.725.075.725.05 2.725-4.975l2-5.025.075 5.025.05 5.025H286V47l-1.15.075-1.15.075-2.15 5.35-2.125 5.325-2.15-5.325-2.15-5.35-1-.075c-.575-.05-1.1 0-1.2.1z" fill="#fff"/></svg>