<svg xmlns="http://www.w3.org/2000/svg" width="286" height="61.1" viewBox="0 0 286 61.122"><defs><style>.a{fill:#fff;}.b{fill:#4ca2f0;}</style></defs><path class="a" d="M 118.7 30.8 C 118.3 30.4 117.8 30.1 117.4 29.8 C 116 28.8 114.4 28 112.8 27.4 l -0.1 0 C 106.1 25.2 98.8 27.2 94.2 32.5 C 89.6 37.7 88.6 45.2 91.6 51.5 l -1 1.1 L 76.6 68.5 C 74.9 70.4 74.5 73.1 75.5 75.4 C 75.9 76.3 76.5 77.1 77.2 77.8 C 78.5 79 80.3 79.6 82 79.5 C 83.8 79.4 85.4 78.5 86.6 77.2 c 0 0 0.1 -0.1 0.1 -0.1 h 0 C 88.3 78.5 90.8 78.4 92.3 76.8 C 93.8 75.2 93.7 72.7 92.1 71.2 l -0.1 -0.1 c 0 0 -0.1 -0.1 -0.1 -0.1 s -0.1 -0.1 -0.2 -0.2 C 91 69.8 91.1 68.4 91.9 67.5 C 92.8 66.7 94.2 66.6 95.2 67.3 l 0.1 0.1 l 0 0 C 97 68.9 99.5 68.7 100.9 67.1 C 102.4 65.4 102.3 62.9 100.6 61.4 l 1 -1.1 C 109.4 62.9 118 59.7 122.2 52.5 C 126.3 45.4 124.9 36.3 118.7 30.8 Z m -3.8 14.2 C 114.4 45.6 113.8 46 113.1 46.4 C 110.1 48 106.4 47 104.6 44.2 C 102.8 41.3 103.4 37.6 106.1 35.5 C 108.7 33.5 112.5 33.8 114.8 36.2 C 117.1 38.7 117.2 42.5 114.9 45 Z" transform="matrix(1,0,0,1,-52.2,-18.4)"/><path class="b" d="M 26.3 34.2 C 28.4 33.5 29.6 31.3 28.9 29.2 l 1.4 -0.5 C 32.2 30.9 34.7 32.6 37.4 33.6 C 32 27.7 31.4 18.9 35.8 12.3 C 40.2 5.6 48.6 2.8 56.1 5.5 C 51.4 0.5 44.1 -1.3 37.7 1 C 31.2 3.3 26.6 9.2 26.1 16.1 l -1.4 0.5 L 4.5 23.3 C 1 24.5 -0.9 28.2 0.3 31.7 C 1.5 35.2 5.2 37.1 8.7 35.9 l 0.1 0 h 0 C 9.5 38 11.7 39.2 13.8 38.6 C 16 37.9 17.2 35.6 16.5 33.5 c 0 0 0 -0.1 -0.1 -0.1 C 16.4 33.4 16.4 33.3 16.4 33.3 c 0 -0.1 -0.1 -0.2 -0.1 -0.3 C 16.1 31.7 16.9 30.5 18.1 30.2 C 19.3 29.9 20.6 30.5 21.1 31.7 C 21.1 31.7 21.1 31.8 21.1 31.8 h 0 C 21.9 33.9 24.1 34.9 26.2 34.2 Z" transform="translate(0)"/><path class="a" d="M 270.7 44 l 14.5 -16.5 a 0.7 0.7 0 0 0 -0.4 -1.2 h -4.6 a 3.6 3.6 0 0 0 -2.6 1.3 L 266.9 40.8 h -1 l 1.9 -13.1 a 1.4 1.4 0 0 0 -1.4 -1.6 h -3.7 a 1.8 1.8 0 0 0 -1.8 1.6 l -4.4 31.4 a 1.3 1.3 0 0 0 1.3 1.6 h 3.7 a 1.8 1.8 0 0 0 1.8 -1.6 L 265 47.6 h 0.9 l 7.1 11.9 a 2.7 2.7 0 0 0 2.3 1.2 h 5.1 a 0.8 0.8 0 0 0 0.7 -1.2 Z" transform="translate(-178.8,-18.3)"/><path class="a" d="M 372.1 26.2 H 354.6 a 1.8 1.8 0 0 0 -1.8 1.6 L 348.4 59.2 a 1.3 1.3 0 0 0 1.3 1.6 h 17.9 a 1.8 1.8 0 0 0 1.7 -1.6 l 0.3 -2.5 a 1.3 1.3 0 0 0 -1.3 -1.5 h -12.5 l 1.2 -8.4 h 9.8 a 1.8 1.8 0 0 0 1.8 -1.6 l 0.3 -2.4 a 1.3 1.3 0 0 0 -1.3 -1.6 h -9.8 l 1.3 -9.3 H 371.3 a 1.9 1.9 0 0 0 1.8 -1.5 l 0.3 -2.5 a 1.3 1.3 0 0 0 -1.3 -1.6 Z" transform="translate(-242.8,-18.3)"/><path class="a" d="M 464.4 26.2 h -4 a 2.8 2.8 0 0 0 -2.3 1.4 l -8.2 15.2 l -4 -15.2 a 1.9 1.9 0 0 0 -1.9 -1.4 h -4.2 a 1.1 1.1 0 0 0 -1.1 1.4 L 445.5 48.9 l -1.5 10.3 a 1.4 1.4 0 0 0 1.4 1.6 h 3.8 a 1.8 1.8 0 0 0 1.7 -1.6 l 1.5 -10.4 l 12.7 -21.2 A 0.8 0.8 0 0 0 464.4 26.2 Z" transform="translate(-305.7,-18.3)"/><path class="a" d="M 636.9 59.2 l 4.4 -31.4 C 641.4 27.4 641.3 27 641 26.7 C 640.8 26.4 640.4 26.2 640 26.2 h -3.8 C 635.3 26.2 634.6 26.9 634.5 27.8 l -1.9 13.4 H 622.1 L 624 27.8 C 624.1 27.4 624 27 623.7 26.7 C 623.5 26.4 623.1 26.2 622.7 26.2 h -3.8 C 618 26.2 617.2 26.9 617.1 27.8 l -4.4 31.4 C 612.6 59.6 612.7 60 613 60.3 C 613.2 60.6 613.6 60.8 614 60.8 h 3.8 C 618.7 60.8 619.4 60.1 619.5 59.2 l 1.7 -12.3 h 10.4 L 630 59.2 C 629.9 59.6 630 60 630.3 60.3 C 630.5 60.6 630.9 60.8 631.3 60.8 H 635.1 C 636 60.8 636.8 60.1 636.9 59.2 Z" transform="matrix(1,0,0,1,-427.1,-18.3)"/><path class="a" d="M 730.5 59.3 l -6.2 -31.6 A 2 2 0 0 0 722.4 26.2 h -3.3 a 2.8 2.8 0 0 0 -2.3 1.5 L 701.7 59.3 a 1 1 0 0 0 0.8 1.5 H 706.6 a 2.5 2.5 0 0 0 2.2 -1.5 l 3 -6.8 h 10.6 l 1.1 6.9 a 1.8 1.8 0 0 0 1.8 1.5 h 4.1 a 1.2 1.2 0 0 0 1.2 -1.5 Z M 714 47.1 l 5.5 -12.8 l 2 12.8 Z" transform="translate(-489,-18.3)"/><path class="a" d="M 817 26.2 h -3.8 a 1.8 1.8 0 0 0 -1.8 1.6 l -4.4 31.4 a 1.3 1.3 0 0 0 1.3 1.6 h 3.8 a 1.8 1.8 0 0 0 1.7 -1.6 l 4.4 -31.4 a 1.3 1.3 0 0 0 -1.3 -1.6 Z" transform="translate(-562.5,-18.3)"/><path class="a" d="M 874.9 26.2 h -3.7 a 1.8 1.8 0 0 0 -1.7 1.6 L 866.7 48.3 l -7.6 -20.7 a 2.3 2.3 0 0 0 -2.1 -1.4 h -4 a 1.8 1.8 0 0 0 -1.8 1.6 L 846.8 59.2 a 1.3 1.3 0 0 0 1.3 1.6 h 3.7 a 1.8 1.8 0 0 0 1.7 -1.6 l 2.8 -20.4 l 7.5 20.6 a 2.3 2.3 0 0 0 2.1 1.4 h 4.1 a 1.9 1.9 0 0 0 1.8 -1.6 l 4.4 -31.4 a 1.3 1.3 0 0 0 -1.3 -1.6 Z" transform="translate(-590.2,-18.3)"/><path class="a" d="M 542.7 29.6 a 17.3 17.3 0 1 0 -4.1 29.6 a 1.1 1.1 0 0 0 0.5 -0.4 a 3.5 3.5 0 0 0 0.6 -1.9 l 0.6 -4.8 a 1 1 0 0 0 -1.7 -0.9 a 10.3 10.3 0 1 1 1.8 -13.9 a 1.1 1.1 0 0 0 1.9 -0.5 l 0.8 -6.1 a 1.1 1.1 0 0 0 -0.4 -1 Z" transform="translate(-358.8,-18.1)"/><circle class="a" cx="6.5" cy="6.5" r="6.5" transform="translate(166.9,18.8)"/><rect width="103.6" height="1.5" class="b" transform="translate(77.8,54.2)"/>
    <text textLength="94.8" 
      font-size="17" 
      font-family="monospace"
      x="192" 
      y="61" 
      fill="white">
        FOR STEEM
    </text>
</svg>