<svg  width="286" height="61.1" viewBox="0 0 286 61.122"><path fill="#fff" d="M66.5 12.4c-.4-.4-.9-.7-1.3-1-1.4-1-3-1.8-4.6-2.4h-.1c-6.6-2.2-13.9-.2-18.5 5.1-4.6 5.2-5.6 12.7-2.6 19l-1 1.1-14 15.9c-1.7 1.9-2.1 4.6-1.1 6.9.4.9 1 1.7 1.7 2.4 1.3 1.2 3.1 1.8 4.8 1.7 1.8-.1 3.4-1 4.6-2.3l.1-.1c1.6 1.4 4.1 1.3 5.6-.3s1.4-4.1-.2-5.6l-.1-.1-.1-.1-.2-.2c-.7-1-.6-2.4.2-3.3.9-.8 2.3-.9 3.3-.2l.1.1c1.7 1.5 4.2 1.3 5.6-.3 1.5-1.7 1.4-4.2-.3-5.7l1-1.1c7.8 2.6 16.4-.6 20.6-7.8 4.1-7.1 2.7-16.2-3.5-21.7zm-3.8 14.2c-.5.6-1.1 1-1.8 1.4-3 1.6-6.7.6-8.5-2.2-1.8-2.9-1.2-6.6 1.5-8.7 2.6-2 6.4-1.7 8.7.7 2.3 2.5 2.4 6.3.1 8.8z"/><path fill="#4CA2F0" d="M26.3 34.2c2.1-.7 3.3-2.9 2.6-5l1.4-.5c1.9 2.2 4.4 3.9 7.1 4.9-5.4-5.9-6-14.7-1.6-21.3 4.4-6.7 12.8-9.5 20.3-6.8-4.7-5-12-6.8-18.4-4.5-6.5 2.3-11.1 8.2-11.6 15.1l-1.4.5-20.2 6.7C1 24.5-.9 28.2.3 31.7c1.2 3.5 4.9 5.4 8.4 4.2h.1c.7 2.1 2.9 3.3 5 2.7 2.2-.7 3.4-3 2.7-5.1 0 0 0-.1-.1-.1v-.1c0-.1-.1-.2-.1-.3-.2-1.3.6-2.5 1.8-2.8 1.2-.3 2.5.3 3 1.5v.1c.8 2.1 3 3.1 5.1 2.4z"/><path fill="#fff" d="M91.9 25.7l14.5-16.5A.7.7 0 00106 8h-4.6a3.6 3.6 0 00-2.6 1.3L88.1 22.5h-1L89 9.4a1.4 1.4 0 00-1.4-1.6h-3.7a1.8 1.8 0 00-1.8 1.6l-4.4 31.4a1.3 1.3 0 001.3 1.6h3.7a1.8 1.8 0 001.8-1.6l1.7-11.5h.9l7.1 11.9a2.7 2.7 0 002.3 1.2h5.1a.8.8 0 00.7-1.2zM129.3 7.9h-17.5a1.8 1.8 0 00-1.8 1.6l-4.4 31.4a1.3 1.3 0 001.3 1.6h17.9a1.8 1.8 0 001.7-1.6l.3-2.5a1.3 1.3 0 00-1.3-1.5H113l1.2-8.4h9.8a1.8 1.8 0 001.8-1.6l.3-2.4a1.3 1.3 0 00-1.3-1.6H115l1.3-9.3h12.2a1.9 1.9 0 001.8-1.5l.3-2.5a1.3 1.3 0 00-1.3-1.6zM158.7 7.9h-4a2.8 2.8 0 00-2.3 1.4l-8.2 15.2-4-15.2a1.9 1.9 0 00-1.9-1.4h-4.2a1.1 1.1 0 00-1.1 1.4l6.8 21.3-1.5 10.3a1.4 1.4 0 001.4 1.6h3.8a1.8 1.8 0 001.7-1.6l1.5-10.4 12.7-21.2a.8.8 0 00-.7-1.4zM209.8 40.9l4.4-31.4c.1-.4 0-.8-.3-1.1-.2-.3-.6-.5-1-.5h-3.8c-.9 0-1.6.7-1.7 1.6l-1.9 13.4H195l1.9-13.4c.1-.4 0-.8-.3-1.1-.2-.3-.6-.5-1-.5h-3.8c-.9 0-1.7.7-1.8 1.6l-4.4 31.4c-.1.4 0 .8.3 1.1.2.3.6.5 1 .5h3.8c.9 0 1.6-.7 1.7-1.6l1.7-12.3h10.4l-1.6 12.3c-.1.4 0 .8.3 1.1.2.3.6.5 1 .5h3.8c.9 0 1.7-.7 1.8-1.6zM241.5 41l-6.2-31.6a2 2 0 00-1.9-1.5h-3.3a2.8 2.8 0 00-2.3 1.5L212.7 41a1 1 0 00.8 1.5h4.1a2.5 2.5 0 002.2-1.5l3-6.8h10.6l1.1 6.9a1.8 1.8 0 001.8 1.5h4.1a1.2 1.2 0 001.2-1.5zM225 28.8l5.5-12.8 2 12.8zM254.5 7.9h-3.8a1.8 1.8 0 00-1.8 1.6l-4.4 31.4a1.3 1.3 0 001.3 1.6h3.8a1.8 1.8 0 001.7-1.6l4.4-31.4a1.3 1.3 0 00-1.3-1.6zM284.7 7.9H281a1.8 1.8 0 00-1.7 1.6L276.5 30l-7.6-20.7a2.3 2.3 0 00-2.1-1.4h-4a1.8 1.8 0 00-1.8 1.6l-4.4 31.4a1.3 1.3 0 001.3 1.6h3.7a1.8 1.8 0 001.7-1.6l2.8-20.4 7.5 20.6a2.3 2.3 0 002.1 1.4h4.1a1.9 1.9 0 001.8-1.6L286 9.5a1.3 1.3 0 00-1.3-1.6zM183.9 11.5a17.3 17.3 0 10-4.1 29.6 1.1 1.1 0 00.5-.4 3.5 3.5 0 00.6-1.9l.6-4.8a1 1 0 00-1.7-.9 10.3 10.3 0 111.8-13.9 1.1 1.1 0 001.9-.5l.8-6.1a1.1 1.1 0 00-.4-1z"/><circle fill="#fff" cx="6.5" cy="6.5" r="6.5" transform="translate(166.9 18.8)"/><path fill="#4CA2F0" class="b" d="M77.8 54.2h103.6v1.5H77.8z"/><text fill="#fff" textLength="94.8" font-size="18.5" font-family="monospace" x="188" y="100%">FOR STEEM</text></svg>