<svg xmlns="http://www.w3.org/2000/svg" width="97.797" height="82.582" viewBox="0 0 97.797 82.582"><path fill="#fff" d="M89.823 16.691a21.912 21.912 0 00-1.732-1.384 23.093 23.093 0 00-6.167-3.211l-.074-.025a23.474 23.474 0 00-28.614 32.582l-1.356 1.536-18.944 21.52a8.956 8.956 0 00-1.552 9.366 8.866 8.866 0 002.352 3.276 8.96 8.96 0 0012.65-.819c.045-.049.094-.1.135-.156a5.442 5.442 0 007.334-8.022l-.16-.119c-.045-.033-.086-.07-.123-.1s-.176-.168-.258-.254a3.362 3.362 0 014.705-4.8l.115.106.025-.025A5.442 5.442 0 0065.35 58l1.343-1.528a23.461 23.461 0 0023.121-39.809zm-5.115 19.124a8.665 8.665 0 01-2.457 1.957 8.809 8.809 0 112.457-1.958z"/><path fill="#4ca2f0" d="M35.525 46.164a5.434 5.434 0 003.5-6.724l1.925-.643a23.514 23.514 0 009.595 6.655 23.469 23.469 0 0125.318-38.02 23.469 23.469 0 00-40.542 14.333l-1.945.643-27.234 9.047a8.961 8.961 0 005.643 17.011l.2-.066a5.442 5.442 0 0010.374-3.231c-.029-.057-.053-.123-.078-.184a.819.819 0 01-.053-.147c-.041-.119-.07-.238-.1-.352a3.366 3.366 0 016.483-1.769.709.709 0 00.045.152h.033a5.442 5.442 0 006.835 3.3z"/></svg>