<svg width="96" height="96" viewBox="0 0 144 144"><path d="M0 100.5V144h72V78h-3.5c-3.3 0-3.5-.2-3.5-3.5s-.2-3.5-3.5-3.5-3.5-.2-3.5-3.5-.2-3.5-3.5-3.5-3.5-.2-3.5-3.5V57H0v43.5zM37 78v14h28v45H7V64h30v14zm14-10.5c0 3.3.2 3.5 3.5 3.5s3.5.2 3.5 3.5.2 3.5 3.5 3.5 3.5.2 3.5 3.5V85H44V64h3.5c3.3 0 3.5.2 3.5 3.5z"/><path d="M18 85v7h7V78h-7v7zM25 116.5c0 3.3-.2 3.5-3.5 3.5s-3.5.2-3.5 3.5.2 3.5 3.5 3.5 3.5-.2 3.5-3.5V120h22v3.5c0 3.3.2 3.5 3.5 3.5s3.5-.2 3.5-3.5-.2-3.5-3.5-3.5-3.5-.2-3.5-3.5V113H25v3.5z"/></svg>