<svg width="14.596" height="14.596" fill="#fff"><path d="M12.885 14.6H5.131a1.712 1.712 0 01-1.71-1.71V5.131a1.712 1.712 0 011.71-1.71h7.754a1.712 1.712 0 011.71 1.71v7.754a1.712 1.712 0 01-1.71 1.715zM5.131 4.561a.571.571 0 00-.57.57v7.754a.571.571 0 00.57.57h7.754a.571.571 0 00.57-.57V5.131a.571.571 0 00-.57-.57zm-2.85 5.474H1.71a.571.571 0 01-.57-.57V1.71a.571.571 0 01.57-.57h7.754a.571.571 0 01.57.57v.542h1.14V1.71A1.712 1.712 0 009.464 0H1.71A1.712 1.712 0 000 1.71v7.754a1.712 1.712 0 001.71 1.71h.57zm0 0"/></svg>