<svg width="16.527" height="17.708" fill="#fff"><path d="M.59 3.542h1.181V15.63a2.084 2.084 0 002.078 2.078H12.7a2.084 2.084 0 002.054-2.078V3.542h1.181a.59.59 0 000-1.181h-4.13v-1.18A1.181 1.181 0 0010.654 0H5.9a1.181 1.181 0 00-1.178 1.181v1.18H.59a.59.59 0 100 1.181zM5.9 1.181h4.722v1.18H5.9zM4.722 3.542h8.854V15.63a.9.9 0 01-.9.9H3.825a.9.9 0 01-.874-.9V3.542z"/><path d="M6.304 14.167a.59.59 0 00.59-.59V6.493a.59.59 0 00-1.181 0v7.083a.59.59 0 00.591.591zM10.223 14.167a.59.59 0 00.59-.59V6.493a.59.59 0 10-1.181 0v7.083a.59.59 0 00.591.591z"/></svg>