<svg width="20.043" height="12.956" fill="#fff"><path d="M10.021 12.957c-3.751 0-7.343-2.76-9.714-5.625a1.342 1.342 0 010-1.709 20.083 20.083 0 013.514-3.325c4.2-3.059 8.189-3.065 12.4 0a20.467 20.467 0 013.514 3.325 1.342 1.342 0 010 1.709c-2.37 2.864-5.962 5.625-9.714 5.625zm0-11.725c-4.156 0-7.758 3.963-8.763 5.178a.106.106 0 000 .136c1.005 1.215 4.607 5.178 8.763 5.178s7.758-3.963 8.763-5.178a.108.108 0 000-.136c-1.005-1.216-4.607-5.176-8.763-5.176z"/><path d="M10.021 10.797a4.32 4.32 0 114.32-4.32 4.325 4.325 0 01-4.32 4.32zm0-7.406a3.086 3.086 0 103.086 3.086 3.089 3.089 0 00-3.086-3.086z"/></svg>